# xmcd CD database file
#
# Track frame offsets:
#	150
#	24976
#	44324
#	73343
#	94612
#	115243
#	135569
#	158597
#	181258
#	205775
#
# Disc length: 3086 seconds
#
# Revision: 0
# Processed by: cddbd v1.5.2PL0 Copyright (c) Steve Scherf et al.
# Submitted via: CDex 1.51
#
DISCID=7e0c0c0a
DTITLE=Mark Maxwell - Saxual Healing
DYEAR=2006
DGENRE=Jazz
TTITLE0=Saxual Healing
TTITLE1=Just Right
TTITLE2=By Her Side
TTITLE3=Blue Light
TTITLE4=Lily Was Here
TTITLE5=Blackberries
TTITLE6=Fallin'
TTITLE7=Kundalini
TTITLE8=Baby, It's You
TTITLE9=Little Bit 'O Soul Now
EXTD=YEAR: 2006
EXTT0=
EXTT1=
EXTT2=
EXTT3=
EXTT4=
EXTT5=
EXTT6=
EXTT7=
EXTT8=
EXTT9=
PLAYORDER=
